# This file uses centimeters as units for non-parametric coordinates.

mtllib PlayAreaBorder.mtl
g default
v -2.500000 -0.500000 12.500000
v 2.500000 -0.500000 12.500000
v -2.500000 0.500000 12.500000
v 2.500000 0.500000 12.500000
v 17.500000 -0.500000 12.500000
v 17.500000 0.500000 12.500000
v -17.500000 -0.500000 12.500000
v -17.500000 0.500000 12.500000
v -2.500000 0.500000 -12.500000
v -2.500000 -0.500000 -12.500000
v 2.500000 0.500000 -12.500000
v 2.500000 -0.500000 -12.500000
v 17.500000 0.500000 -12.500000
v 17.500000 -0.500000 -12.500000
v -17.500000 -0.500000 -12.500000
v -17.500000 0.500000 -12.500000
v -2.500000 -0.500000 14.166000
v -2.500000 0.500000 14.166000
v 2.500000 -0.500000 14.166000
v 2.500000 0.500000 14.166000
v -2.500000 0.500000 -14.166000
v -2.500000 -0.500000 -14.166000
v 2.500000 0.500000 -14.166000
v 2.500000 -0.500000 -14.166000
v 19.166000 -0.500000 14.166000
v 19.166000 0.500000 14.166000
v -19.166000 -0.500000 14.166000
v -19.166000 0.500000 14.166000
v 19.166000 0.500000 -14.166000
v 19.166000 -0.500000 -14.166000
v -19.166000 -0.500000 -14.166000
v -19.166000 0.500000 -14.166000
v -2.500000 1.044859 12.500000
v -2.500000 1.044859 14.166000
v 2.500000 1.044859 12.500000
v 2.500000 1.044859 14.166000
v -2.500000 1.044859 -12.500000
v -2.500000 1.044859 -14.166000
v 2.500000 1.044859 -12.500000
v 2.500000 1.044859 -14.166000
v 17.500000 1.044859 12.500000
v 19.166000 1.044859 14.166000
v -17.500000 1.044859 12.500000
v -19.166000 1.044859 14.166000
v 17.500000 1.044859 -12.500000
v 19.166000 1.044859 -14.166000
v -17.500000 1.044859 -12.500000
v -19.166000 1.044859 -14.166000
vt 0.375000 0.000000
vt 0.625000 0.000000
vt 0.375000 0.250000
vt 0.625000 0.250000
vt 0.625000 0.000000
vt 0.625000 0.250000
vt 0.375000 0.000000
vt 0.375000 0.250000
vt 0.375000 0.500000
vt 0.875000 0.250000
vt 0.875000 0.250000
vt 0.875000 0.000000
vt 0.875000 0.000000
vt 0.125000 0.000000
vt 0.125000 0.000000
vt 0.125000 0.250000
vt 0.125000 0.250000
vt 0.375000 0.000000
vt 0.375000 0.250000
vt 0.625000 0.000000
vt 0.625000 0.250000
vt 0.625000 0.500000
vt 0.625000 0.000000
vt 0.625000 0.250000
vt 0.375000 0.000000
vt 0.375000 0.250000
vt 0.875000 0.250000
vt 0.875000 0.250000
vt 0.875000 0.000000
vt 0.875000 0.000000
vt 0.125000 0.000000
vt 0.125000 0.000000
vt 0.125000 0.250000
vt 0.125000 0.250000
vt 0.375000 0.250000
vt 0.375000 0.250000
vt 0.625000 0.250000
vt 0.625000 0.250000
vt 0.625000 0.250000
vt 0.625000 0.250000
vt 0.375000 0.250000
vt 0.375000 0.250000
vt 0.875000 0.250000
vt 0.875000 0.250000
vt 0.875000 0.250000
vt 0.875000 0.250000
vt 0.125000 0.250000
vt 0.125000 0.250000
vt 0.125000 0.250000
vt 0.125000 0.250000
vn 1.000000 0.000000 0.000000
vn 1.000000 0.000000 0.000000
vn 1.000000 0.000000 0.000000
vn 1.000000 0.000000 0.000000
vn -1.000000 0.000000 0.000000
vn -1.000000 0.000000 0.000000
vn -1.000000 0.000000 0.000000
vn -1.000000 0.000000 0.000000
vn 0.000000 0.000000 -1.000000
vn 0.000000 0.000000 -1.000000
vn 0.000000 0.000000 -1.000000
vn 0.000000 0.000000 -1.000000
vn 0.000000 0.000000 1.000000
vn 0.000000 0.000000 1.000000
vn 0.000000 0.000000 1.000000
vn 0.000000 0.000000 1.000000
vn 0.000000 0.000000 -1.000000
vn 0.000000 0.000000 -1.000000
vn 0.000000 0.000000 -1.000000
vn 0.000000 0.000000 -1.000000
vn 0.000000 0.000000 1.000000
vn 0.000000 0.000000 1.000000
vn 0.000000 0.000000 1.000000
vn 0.000000 0.000000 1.000000
vn 0.000000 -1.000000 0.000000
vn 0.000000 -1.000000 0.000000
vn 0.000000 -1.000000 0.000000
vn 0.000000 -1.000000 0.000000
vn 0.000000 1.000000 0.000000
vn 0.000000 1.000000 0.000000
vn 0.000000 1.000000 0.000000
vn 0.000000 1.000000 0.000000
vn 0.000000 1.000000 0.000000
vn 0.000000 1.000000 0.000000
vn 0.000000 1.000000 0.000000
vn 0.000000 1.000000 0.000000
vn 0.000000 -1.000000 0.000000
vn 0.000000 -1.000000 0.000000
vn 0.000000 -1.000000 0.000000
vn 0.000000 -1.000000 0.000000
vn 0.000000 1.000000 -0.000000
vn 0.000000 1.000000 -0.000000
vn 0.000000 1.000000 -0.000000
vn 0.000000 1.000000 -0.000000
vn 0.000000 -1.000000 0.000000
vn 0.000000 -1.000000 0.000000
vn 0.000000 -1.000000 0.000000
vn 0.000000 -1.000000 0.000000
vn 0.000000 1.000000 0.000000
vn 0.000000 1.000000 0.000000
vn 0.000000 1.000000 0.000000
vn 0.000000 1.000000 0.000000
vn 0.000000 -1.000000 0.000000
vn 0.000000 -1.000000 0.000000
vn 0.000000 -1.000000 0.000000
vn 0.000000 -1.000000 0.000000
vn 1.000000 0.000000 0.000000
vn 1.000000 0.000000 0.000000
vn 1.000000 0.000000 0.000000
vn 1.000000 0.000000 0.000000
vn 1.000000 0.000000 0.000000
vn 1.000000 0.000000 0.000000
vn 1.000000 0.000000 0.000000
vn 1.000000 0.000000 0.000000
vn 0.000000 0.000000 1.000000
vn 0.000000 0.000000 1.000000
vn 0.000000 0.000000 1.000000
vn 0.000000 0.000000 1.000000
vn 0.000000 0.000000 -1.000000
vn 0.000000 0.000000 -1.000000
vn 0.000000 0.000000 -1.000000
vn 0.000000 0.000000 -1.000000
vn 0.000000 0.000000 -1.000000
vn 0.000000 0.000000 -1.000000
vn 0.000000 0.000000 -1.000000
vn 0.000000 0.000000 -1.000000
vn 0.000000 0.000000 1.000000
vn 0.000000 0.000000 1.000000
vn 0.000000 0.000000 1.000000
vn 0.000000 0.000000 1.000000
vn 0.000000 0.000000 1.000000
vn 0.000000 0.000000 1.000000
vn 0.000000 0.000000 1.000000
vn 0.000000 0.000000 1.000000
vn 0.000000 0.000000 -1.000000
vn 0.000000 0.000000 -1.000000
vn 0.000000 0.000000 -1.000000
vn 0.000000 0.000000 -1.000000
vn 0.000000 0.000000 -1.000000
vn 0.000000 0.000000 -1.000000
vn 0.000000 0.000000 -1.000000
vn 0.000000 0.000000 -1.000000
vn 0.000000 0.000000 1.000000
vn 0.000000 0.000000 1.000000
vn 0.000000 0.000000 1.000000
vn 0.000000 0.000000 1.000000
vn -1.000000 0.000000 0.000000
vn -1.000000 0.000000 0.000000
vn -1.000000 0.000000 0.000000
vn -1.000000 0.000000 0.000000
vn -1.000000 0.000000 0.000000
vn -1.000000 0.000000 0.000000
vn -1.000000 0.000000 0.000000
vn -1.000000 0.000000 0.000000
vn 1.000000 0.000000 0.000000
vn 1.000000 0.000000 0.000000
vn 1.000000 0.000000 0.000000
vn 1.000000 0.000000 0.000000
vn -1.000000 0.000000 0.000000
vn -1.000000 0.000000 0.000000
vn -1.000000 0.000000 0.000000
vn -1.000000 0.000000 0.000000
vn 1.000000 0.000000 0.000000
vn 1.000000 0.000000 0.000000
vn 1.000000 0.000000 0.000000
vn 1.000000 0.000000 0.000000
vn -1.000000 0.000000 0.000000
vn -1.000000 0.000000 0.000000
vn -1.000000 0.000000 0.000000
vn -1.000000 0.000000 0.000000
vn 0.000000 0.000000 1.000000
vn 0.000000 0.000000 1.000000
vn 0.000000 0.000000 1.000000
vn 0.000000 0.000000 1.000000
vn -1.000000 0.000000 0.000000
vn -1.000000 0.000000 0.000000
vn -1.000000 0.000000 0.000000
vn -1.000000 0.000000 0.000000
vn 0.000000 0.000000 -1.000000
vn 0.000000 0.000000 -1.000000
vn 0.000000 0.000000 -1.000000
vn 0.000000 0.000000 -1.000000
vn 0.000000 0.000000 -1.000000
vn 0.000000 0.000000 -1.000000
vn 0.000000 0.000000 -1.000000
vn 0.000000 0.000000 -1.000000
vn 1.000000 0.000000 0.000000
vn 1.000000 0.000000 0.000000
vn 1.000000 0.000000 0.000000
vn 1.000000 0.000000 0.000000
vn 0.000000 0.000000 1.000000
vn 0.000000 0.000000 1.000000
vn 0.000000 0.000000 1.000000
vn 0.000000 0.000000 1.000000
vn 1.000000 0.000000 0.000000
vn 1.000000 0.000000 0.000000
vn 1.000000 0.000000 0.000000
vn 1.000000 0.000000 0.000000
vn -1.000000 0.000000 0.000000
vn -1.000000 0.000000 0.000000
vn -1.000000 0.000000 0.000000
vn -1.000000 0.000000 0.000000
vn 1.000000 0.000000 0.000000
vn 1.000000 0.000000 0.000000
vn 1.000000 0.000000 0.000000
vn 1.000000 0.000000 0.000000
vn -1.000000 0.000000 0.000000
vn -1.000000 0.000000 0.000000
vn -1.000000 0.000000 0.000000
vn -1.000000 0.000000 0.000000
s off
g PlayAreaBorder
usemtl initialShadingGroup
f 26/24/1 25/23/2 30/29/3 29/28/4
f 32/33/5 31/32/6 27/25/7 28/26/8
f 24/30/9 23/27/10 29/28/11 30/29/12
f 20/21/13 19/20/14 25/23/15 26/24/16
f 21/34/17 22/31/18 31/32/19 32/33/20
f 17/18/21 18/19/22 28/26/23 27/25/24
s 1
f 30/29/25 25/23/26 5/5/27 14/12/28
s 2
f 48/50/29 44/42/30 43/41/31 47/47/32
s 3
f 39/43/33 45/44/34 46/45/35 40/46/36
s 1
f 14/12/28 12/13/37 24/30/38 30/29/25
f 2/2/39 5/5/27 25/23/26 19/20/40
s 3
f 41/39/41 35/37/42 36/38/43 42/40/44
s 4
f 10/14/45 15/15/46 31/32/47 22/31/48
s 2
f 47/47/32 37/48/49 38/49/50 48/50/29
f 33/35/51 43/41/31 44/42/30 34/36/52
s 4
f 7/7/53 1/1/54 17/18/55 27/25/56
s 3
f 46/45/35 45/44/34 41/39/41 42/40/44
s 4
f 31/32/47 15/15/46 7/7/53 27/25/56
s off
f 46/45/57 42/40/58 26/24/59 29/28/60
f 47/47/61 43/41/62 8/8/63 16/16/64
f 11/10/65 13/11/66 45/44/67 39/43/68
f 29/28/69 23/27/70 40/46/71 46/45/72
f 6/6/73 4/4/74 35/37/75 41/39/76
f 20/21/77 26/24/78 42/40/79 36/38/80
f 16/16/81 9/17/82 37/48/83 47/47/84
f 21/34/85 32/33/86 48/50/87 38/49/88
f 3/3/89 8/8/90 43/41/91 33/35/92
f 28/26/93 18/19/94 34/36/95 44/42/96
f 45/44/97 13/11/98 6/6/99 41/39/100
f 48/50/101 32/33/102 28/26/103 44/42/104
f 33/35/105 34/36/106 18/19/107 3/3/108
f 35/37/109 4/4/110 20/21/111 36/38/112
f 37/48/113 9/9/114 21/34/115 38/49/116
f 39/43/117 40/46/118 23/22/119 11/10/120
f 12/13/121 14/12/122 13/11/123 11/10/124
f 6/6/125 13/11/126 14/12/127 5/5/128
f 5/5/129 2/2/130 4/4/131 6/6/132
f 1/1/133 7/7/134 8/8/135 3/3/136
f 16/16/137 8/8/138 7/7/139 15/15/140
f 15/15/141 10/14/142 9/17/143 16/16/144
f 17/18/145 1/1/146 3/3/147 18/19/148
f 19/20/149 20/21/150 4/4/151 2/2/152
f 22/31/153 21/34/154 9/17/155 10/14/156
f 24/30/157 12/13/158 11/10/159 23/27/160
